<?xml version="1.0" encoding="UTF-8"?>
<svg xmlns="http://www.w3.org/2000/svg" xmlns:xlink="http://www.w3.org/1999/xlink" viewBox="0 0 890.00001 977.45177">
  <defs>
    <style>
      .cls-1 {
        fill: #f7b661;
      }

      .cls-2 {
        fill: #f99106;
      }

      .cls-3 {
        fill: #f9a93e;
      }

      .cls-4 {
        fill: #f99d23;
      }

      .cls-5 {
        fill: #fcc779;
      }

      .cls-6 {
        mix-blend-mode: multiply;
      }

      .cls-7 {
        fill: url(#_名称未設定グラデーション_91);
      }

      .cls-8 {
        opacity: .5;
      }

      .cls-9 {
        isolation: isolate;
      }
    </style>
    <linearGradient id="_名称未設定グラデーション_91" data-name="名称未設定グラデーション 91" x1="937.99319" y1="490.15423" x2="435.11033" y2="490.8384" gradientUnits="userSpaceOnUse">
      <stop offset=".16695" stop-color="#f99106"/>
      <stop offset=".29662" stop-color="#f9930b"/>
      <stop offset=".46675" stop-color="#f99b1c"/>
      <stop offset=".65938" stop-color="#faa837"/>
      <stop offset=".867" stop-color="#fbb95c"/>
      <stop offset="1" stop-color="#fcc779"/>
    </linearGradient>
  </defs>
  <g class="cls-9">
    <g id="_レイヤー_3" data-name="レイヤー 3" class="cls-6">
      <g>
        <path class="cls-7" d="M875.14257,747.78357l-446.48314,213.63089c-18.82675,9.00813-41.65942-3.10406-41.65942-22.09933V42.41562c0-18.99527,22.83267-31.10746,41.65942-22.09933l446.48314,213.63089c9.15114,4.37859,14.85744,12.86628,14.85744,22.09933v469.63773c0,9.23305-5.7063,17.72074-14.85744,22.09933Z"/>
        <g class="cls-8">
          <path class="cls-5" d="M761.34087,349.04236c0,52.25344-27.54446,93.05784-64.25722,90.98475-40.12872-2.26598-75.50717-54.03972-75.50717-115.44152s35.37845-100.79409,75.50717-89.01617c36.71276,10.77533,64.25722,61.21951,64.25722,113.47294Z"/>
          <path class="cls-5" d="M720.00994,481.25768l-48.69777-.43362c-47.16031-.41993-89.23154,56.32233-89.23154,126.77957v119.50314c0,26.29495,16.13645,42.89054,35.32254,37.2777l145.79869-42.65306c13.2115-3.86499,23.60412-23.75746,23.60412-44.54562v-94.29645c0-55.80113-28.54313-101.29105-66.79603-101.63166Z"/>
        </g>
      </g>
    </g>
    <g id="_レイヤー_2" data-name="レイヤー 2" class="cls-6">
      <g>
        <path class="cls-2" d="M15.52443,727.4039l-2.57075-1.49546C5.69645,721.68675,0,712.11675,0,704.39926V272.50391c0-7.71749,5.69645-17.28749,12.95368-21.50918l2.57075-1.49546c7.62075-4.43316,14.00929-1.42576,14.00929,6.8684v464.16784c0,8.29416-6.38854,11.30156-14.00929,6.8684Z"/>
        <path class="cls-4" d="M65.19977,756.30112l-3.22768-1.87761c-9.08545-5.2852-16.18987-16.39894-16.18987-25.01036V247.49003c0-8.61143,7.10442-19.72516,16.18987-25.01036l3.22768-1.87761c9.59694-5.58274,17.67544-2.7141,17.67544,6.6216V749.67952c0,9.3357-8.07851,12.20434-17.67544,6.6216Z"/>
        <path class="cls-3" d="M128.54276,793.1491l-4.17281-2.42741c-11.70279-6.80776-20.80983-20.00103-20.80983-29.74062V215.9221c0-9.73959,9.10704-22.93286,20.80983-29.74062l4.17281-2.42741c12.45477-7.24521,22.9946-4.72153,22.9946,5.95487V787.19423c0,10.67639-10.53983,13.20007-22.9946,5.95487Z"/>
        <path class="cls-1" d="M214.80961,843.33238l-5.65309-3.28853c-15.77555-9.17698-27.97228-25.39628-27.97228-36.65156V173.51088c0-11.25528,12.19674-27.47459,27.97228-36.65156l5.65309-3.28853c16.96161-9.86693,31.41989-8.12383,31.41989,4.40152V838.93086c0,12.52535-14.45828,14.26845-31.41989,4.40152Z"/>
        <path class="cls-5" d="M324.8166,907.32581l-7.86255-4.57381c-21.80316-12.68337-38.52209-33.07266-38.52209-46.22679V120.37796c0-13.15413,16.71893-33.54342,38.52209-46.22679l7.86255-4.57381c23.74938-13.81552,44.18341-13.60532,44.18341,1.31723V906.00857c0,14.92255-20.43403,15.13276-44.18341,1.31723Z"/>
      </g>
    </g>
  </g>
</svg>