<?xml version="1.0" encoding="UTF-8"?>
<svg xmlns="http://www.w3.org/2000/svg" xmlns:xlink="http://www.w3.org/1999/xlink" viewBox="0 0 890 977.45">
  <defs>
    <link rel="stylesheet" href="../svg.css" />

    <style>
<!-- 1 -->
      .cls-2 {
        
        fill: #f99106;
      }
<!-- 2 -->
      .cls-4 {
        
        fill: #f99d23;
      }
<!-- 3 -->
      .cls-3 {
        
        fill: #f9a93e;
      }
<!-- 4 -->
      .cls-1 {
        
        fill: #f7b661;
      }
<!-- 5 -->
      .cls-55 {
        
        fill: #fcc779;
      }




      .cls-5 {

        fill: #fcc779;
      }

      .cls-6 {
        mix-blend-mode: multiply;
      }

      .cls-7 {
        fill: url(#_名称未設定グラデーション_91);
      }

      .cls-8 {
        opacity: .5;
      }

      .cls-9 {
        isolation: isolate;
      }

      @keyframes color1 {
        0%{
        <!-- fill: #f99106; -->
        fill: #f7ac4a;
        }
        25% {
        fill: #f99d23;
        }
        50% {
        fill: #f9a93e;
        }
        75% {
        fill: #f7b661;
        }
        95% {
        fill: #fcc779;
        4
      }
      @keyframes color2 {
        0%, 100% {
          
        }
        10%, 90% {
          
        }
        20%, 80% {
          
        }
        30%, 70% {
          
        }
        40%, 60% {
          
        }
        50% {

        }
      }
      @keyframes color3 {
        0%, 100% {
          
        }
        10%, 90% {
          
        }
        20%, 80% {
          
        }
        30%, 70% {
          
        }
        40%, 60% {
          
        }
        50% {

        }
      }
      @keyframes color4 {
        0%, 100% {
          
        }
        10%, 90% {
          
        }
        20%, 80% {
          
        }
        30%, 70% {
          
        }
        40%, 60% {
          
        }
        50% {

        }
      }
      @keyframes color5 {
        0%, 100% {
          
        }
        10%, 90% {
          
        }
        20%, 80% {
          
        }
        30%, 70% {
          
        }
        40%, 60% {
          
        }
        50% {

        }
      }
    </style>
    <linearGradient id="_名称未設定グラデーション_91" data-name="名称未設定グラデーション 91" x1="937.99" y1="490.15" x2="435.11" y2="490.84" gradientUnits="userSpaceOnUse">
      <stop offset=".17" stop-color="#f99106"/>
      <stop offset=".3" stop-color="#f9930b"/>
      <stop offset=".47" stop-color="#f99b1c"/>
      <stop offset=".66" stop-color="#faa837"/>
      <stop offset=".87" stop-color="#fbb95c"/>
      <stop offset="1" stop-color="#fcc779"/>
    </linearGradient>
  </defs>
  <g class="cls-9">
    <g id="_レイヤー_3" data-name="レイヤー 3" class="cls-6">
      <g>
        <path class="cls-7" d="M875.14,747.78l-446.48,213.63c-18.83,9.01-41.66-3.1-41.66-22.1V42.42c0-19,22.83-31.11,41.66-22.1l446.48,213.63c9.15,4.38,14.86,12.87,14.86,22.1v469.64c0,9.23-5.71,17.72-14.86,22.1Z"/>
        <g class="cls-8">
          <path class="cls-5" d="M761.34,349.04c0,52.25-27.54,93.06-64.26,90.98-40.13-2.27-75.51-54.04-75.51-115.44s35.38-100.79,75.51-89.02c36.71,10.78,64.26,61.22,64.26,113.47Z"/>
          <path class="cls-5" d="M720.01,481.26l-48.7-.43c-47.16-.42-89.23,56.32-89.23,126.78v119.5c0,26.29,16.14,42.89,35.32,37.28l145.8-42.65c13.21-3.86,23.6-23.76,23.6-44.55v-94.3c0-55.8-28.54-101.29-66.8-101.63Z"/>
        </g>
      </g>
    </g>
    <g id="_レイヤー_2" data-name="レイヤー 2" class="cls-6">
      <g>
        <path class="cls-2" d="M15.52,727.4l-2.57-1.5C5.7,721.69,0,712.12,0,704.4V272.5c0-7.72,5.7-17.29,12.95-21.51l2.57-1.5c7.62-4.43,14.01-1.43,14.01,6.87v464.17c0,8.29-6.39,11.3-14.01,6.87Z"/>
        <path class="cls-4" d="M65.2,756.3l-3.23-1.88c-9.09-5.29-16.19-16.4-16.19-25.01V247.49c0-8.61,7.1-19.73,16.19-25.01l3.23-1.88c9.6-5.58,17.68-2.71,17.68,6.62V749.68c0,9.34-8.08,12.2-17.68,6.62Z"/>
        <path class="cls-3" d="M128.54,793.15l-4.17-2.43c-11.7-6.81-20.81-20-20.81-29.74V215.92c0-9.74,9.11-22.93,20.81-29.74l4.17-2.43c12.45-7.25,22.99-4.72,22.99,5.95V787.19c0,10.68-10.54,13.2-22.99,5.95Z"/>
        <path class="cls-1" d="M214.81,843.33l-5.65-3.29c-15.78-9.18-27.97-25.4-27.97-36.65V173.51c0-11.26,12.2-27.47,27.97-36.65l5.65-3.29c16.96-9.87,31.42-8.12,31.42,4.4V838.93c0,12.53-14.46,14.27-31.42,4.4Z"/>
        <path class="cls-55" d="M324.82,907.33l-7.86-4.57c-21.8-12.68-38.52-33.07-38.52-46.23V120.38c0-13.15,16.72-33.54,38.52-46.23l7.86-4.57c23.75-13.82,44.18-13.61,44.18,1.32V906.01c0,14.92-20.43,15.13-44.18,1.32Z"/>
      </g>
    </g>
  </g>
</svg>