<?xml version="1.0" encoding="UTF-8"?>
<svg id="_レイヤー_1" data-name="レイヤー 1" xmlns="http://www.w3.org/2000/svg" viewBox="0 0 997.71429 999.91974">
  <defs>
    <style>
      .cls-1 {
        fill: #f49f51;
      }
    </style>
  </defs>
  <path class="cls-1" d="M498.85725,0C223.34595,0,0,223.8397,0,499.95966s223.34595,499.96008,498.85725,499.96008,498.85704-223.8397,498.85704-499.96008S774.36834,0,498.85725,0Zm428.26493,651.62524c-20.17882,56.15596-50.31556,111.66548-90.89525,155.64051-15.58137,16.88501-33.28839,31.89753-52.83739,43.97841-48.15551,29.75893-110.33428,39.63521-162.1691,12.63425-23.88452-12.44176-45.25861-32.80522-60.64622-54.96292-10.19283-14.67766-18.68827-30.45128-26.56971-46.47028-25.70138-52.23816-39.9735-111.03786-73.17514-159.41575-4.5774-6.66965-9.54528-13.06938-14.86205-19.16302-18.88013-21.63817-41.13986-36.63461-65.80976-50.72146-26.56486-15.16863-57.21343-21.28787-85.93645-31.33507-13.51903-4.72883-26.58174-9.6768-40.20905-14.05449-14.75314-4.73919-29.52443-9.66517-43.28303-16.89749-19.66677-10.33785-37.71002-23.70612-53.66013-39.17153-21.03301-20.39393-37.46878-48.47984-44.24634-77.14938-9.97544-42.19625,.2079-86.50317,21.51023-123.61585,19.08402-33.24817,46.5552-61.02546,76.65416-84.71698,46.31859-36.45819,98.47656-62.33295,154.37314-80.3429,38.23115-12.31822,79.20574-17.88176,119.42894-18.56966,3.3224-.05711,6.63974-.08059,9.95011-.07192,62.95213,.16415,125.97454,13.12691,183.88555,37.86447,53.90285,23.02519,102.62697,56.12318,143.82487,98.01524,36.60066,37.21739,66.89021,80.72493,88.63261,128.24314,25.08718,54.82838,39.75442,114.53176,40.67002,174.93277,.43839,28.92972-1.81644,57.87213-6.24673,86.45367-4.14303,27.03565-9.10922,53.08746-18.38328,78.89622Z"/>
  <path class="cls-1" d="M844.77624,380.71416c-12.03999-33.78789-29.43027-65.51908-50.38427-94.56084-46.19003-64.01878-112.3577-113.03351-188.14497-135.57912-59.45942-17.68828-124.73109-22.28671-185.77317-10.79588-23.03265,4.33582-45.79255,11.03713-68.05075,20.35395-10.82847,4.53248-21.4537,9.54758-31.87821,14.94658-27.15328,14.06307-52.32893,32.10447-73.93609,53.80186-20.40067,20.48598-39.99592,44.95772-49.23406,72.81528-10.18935,30.72546-8.14353,65.28791,10.67991,92.04924,15.93592,22.65615,36.81273,41.73326,60.57349,55.88564,23.50667,14.00097,50.62075,21.95802,76.51021,30.27375,26.92024,8.64669,53.16097,19.93661,76.83235,35.54775,54.31609,35.82124,81.86394,95.18732,109.3951,151.6494,11.02351,22.60758,22.10435,45.31415,36.39062,66.00621,14.28005,20.68304,32.00426,39.4365,53.86339,51.79173,19.00339,10.74121,41.15567,16.10863,62.93072,13.28413,19.46231-2.52447,36.12144-12.6696,52.03671-23.72544,32.23279-22.39088,58.87206-52.39206,78.96847-86.03943,8.68349-14.53867,16.16896-29.7959,22.38359-45.55327,32.31091-81.92429,36.4882-178.94166,6.83695-262.15154Zm-82.79158,220.36839c-18.3109,48.8888-61.69193,130.26571-124.75373,119.60876-19.21815-3.24781-36.64736-13.83708-50.7431-27.3261-35.85371-34.31046-47.1656-82.15306-74.11166-122.31331-41.65669-62.08469-111.16776-94.57119-176.0491-125.82718-21.17591-10.20126-45.46232-21.99053-57.88987-42.99045-8.96498-15.14895-12.47217-33.4657-9.73903-50.8643,2.68799-17.11117,11.17882-32.94246,22.27409-46.22407,11.09527-13.28174,24.73845-24.19652,38.89284-34.13742,13.99749-9.83063,28.66231-18.74138,44.02611-26.26411,23.74248-11.62512,48.65849-19.00678,74.03725-22.69914,62.16065-9.04359,127.09746,4.04613,184.36754,31.12886,70.2348,33.21383,119.88528,106.67403,137.50184,181.03844,13.04748,55.07697,12.15307,113.56152-7.81318,166.87001Z"/>
  <path class="cls-1" d="M692.26822,472.62304c-4.65184-32.98174-17.68038-64.76813-37.65603-91.4026-7.56677-10.08913-16.12315-19.47097-25.82921-27.51294-8.09481-6.70689-16.94327-12.44759-26.00147-17.77533-20.38995-11.99296-41.47318-21.33181-64.79117-25.66895-1.94823-.3624-3.90162-.69641-5.85952-1.00228-21.18095-3.30766-42.87894-3.2997-64.05154,.07007-16.68018,2.65478-33.16506,6.70768-48.97017,12.752-5.7095,2.17905-11.33705,4.58914-16.764,7.4013-15.69256,8.13194-29.62888,19.64719-40.58632,33.5351-6.47217,8.20334-12.03483,17.56063-13.40166,27.92855-2.11241,16.0249,6.31407,31.99459,18.18578,42.93605,11.87184,10.94159,26.86503,17.748,41.61207,24.29352,37.44987,16.62244,71.64215,40.54905,98.90519,71.32281,13.17829,14.87519,24.73394,31.20105,34.3035,48.6315,12.17147,22.16967,22.59266,51.88874,46.59162,64.08765,15.93884,8.10195,36.03696,5.6709,51.06418-4.02411,8.32692-5.3722,15.24145-12.72321,21.08376-20.73705,3.63165-4.98153,6.87746-10.23828,9.86906-15.63038,21.92666-39.5205,28.56354-84.7675,22.29594-129.20491Zm-71.60441,41.13213c-3.60239,25.70173-21.8835,66.09565-54.62128,53.01257-15.43463-6.16813-24.57281-21.20534-34.1793-33.87388-9.99934-13.18646-20.00094-26.50973-32.12117-37.84862-14.8678-13.90914-32.41895-24.39066-48.89642-36.19492-7.50176-5.37419-15.62371-10.27278-19.64847-18.77151-3.85661-8.14349-4.17094-18.01724-.42542-26.2592,1.9902-4.37934,4.79788-8.34108,8.11003-11.81408,13.69971-14.36549,33.92548-20.02339,53.00354-22.20815,5.39318-.61758,10.8294-.85777,16.25741-.7256,16.61875,.40473,33.15871,4.29972,48.13853,11.53834,6.45495,3.11923,12.61053,6.85564,18.37631,11.1194,35.12693,25.97535,52.05074,68.89999,46.00625,112.02566Z"/>
</svg>